<?xml version="1.0" encoding="utf-8"?>
<!-- Generator: Adobe Illustrator 19.0.0, SVG Export Plug-In . SVG Version: 6.00 Build 0)  -->
<svg version="1.1" id="katman_1" xmlns="http://www.w3.org/2000/svg" xmlns:xlink="http://www.w3.org/1999/xlink" x="0px" y="0px"
	 viewBox="0 0 141.7 141.7" style="enable-background:new 0 0 141.7 141.7;" xml:space="preserve">
<style type="text/css">
	.st0{fill:#050606;}
</style>
<g id="XMLID_5_">
	<path id="XMLID_3_" class="st0" d="M82,16.1c0,0,9.8-1.1,23.5,8.7c0,0,6.8,3,12.5,11.7c0,0,1.1,6.5-5.4,3.5c0,0-7.3-9.2-15.9-13.1
		c0,0-2.4-1.7-15.5-5C81.2,21.7,77.9,18.4,82,16.1z"/>
	<path id="XMLID_2_" class="st0" d="M81.3,74.4h46.2c0,0,0.5-0.5,1.7,1.6c0,0,2.7,8-5.2,24.3c0,0-7.9,17.5-27.6,25.2
		c0,0-5.8,3.5-15.1,3.2c0,0-3.8-3,0-6.2c0,0,36.3-4.9,40.9-41.5H81.3C81.5,81,77.7,78,81.3,74.4z"/>
	<path id="XMLID_1_" class="st0" d="M59.1,121.9c0,0-32.8-7.7-37.1-40.7h37.1c0,0,3-4.4,0-7.4H22c0,0-5.5-37.7,37.6-51.3
		c0,0,3.2-4.3-2.4-6.2c0,0-45.1,11-42,60.9c0,0-0.8,38,41.8,51.4C56.9,128.6,63.4,126.9,59.1,121.9z"/>
</g>
</svg>
